{
  "accessors": [
    {
      "bufferView": 1,
      "componentType": 5126,
      "count": 1906,
      "max": [
        94.0,
        -72.0,
        -4.0
      ],
      "min": [
        -110.0,
        -136.0,
        -32.0
      ],
      "type": "VEC3"
    },
    {
      "bufferView": 1,
      "byteOffset": 22872,
      "componentType": 5126,
      "count": 1906,
      "max": [
        0.9860380291938782,
        1.0,
        1.0
      ],
      "min": [
        -0.9860420227050781,
        -1.0,
        -1.0
      ],
      "type": "VEC3"
    },
    {
      "bufferView": 0,
      "componentType": 5125,
      "count": 7083,
      "type": "SCALAR"
    },
    {
      "bufferView": 1,
      "byteOffset": 45744,
      "componentType": 5126,
      "count": 1273,
      "max": [
        7.0,
        -156.0,
        -28.39620018005371
      ],
      "min": [
        -22.0,
        -169.0,
        -40.0
      ],
      "type": "VEC3"
    },
    {
      "bufferView": 1,
      "byteOffset": 61020,
      "componentType": 5126,
      "count": 1273,
      "max": [
        1.0,
        1.0,
        0.8375800848007202
      ],
      "min": [
        -0.9999999403953552,
        -1.0,
        -1.0
      ],
      "type": "VEC3"
    },
    {
      "bufferView": 0,
      "byteOffset": 28332,
      "componentType": 5125,
      "count": 6168,
      "type": "SCALAR"
    },
    {
      "bufferView": 1,
      "byteOffset": 76296,
      "componentType": 5126,
      "count": 3807,
      "max": [
        26.757999420166016,
        -0.0,
        -1.0
      ],
      "min": [
        -44.0,
        -179.0,
        -40.0
      ],
      "type": "VEC3"
    },
    {
      "bufferView": 1,
      "byteOffset": 121980,
      "componentType": 5126,
      "count": 3807,
      "max": [
        1.0,
        1.0,
        1.0
      ],
      "min": [
        -1.0,
        -1.0,
        -1.0
      ],
      "type": "VEC3"
    },
    {
      "bufferView": 0,
      "byteOffset": 53004,
      "componentType": 5125,
      "count": 14763,
      "type": "SCALAR"
    }
  ],
  "asset": {
    "extras": {
      "author": "TyrellMM (https://sketchfab.com/TyrellMM)",
      "license": "CC-BY-4.0 (http://creativecommons.org/licenses/by/4.0/)",
      "source": "https://sketchfab.com/3d-models/ihuman-bea9ce86726d42b18aca04e75cffcf16",
      "title": "iHuman"
    },
    "generator": "Sketchfab-11.87.0",
    "version": "2.0"
  },
  "bufferViews": [
    {
      "buffer": 0,
      "byteLength": 112056,
      "name": "floatBufferViews",
      "target": 34963
    },
    {
      "buffer": 0,
      "byteLength": 167664,
      "byteOffset": 112056,
      "byteStride": 12,
      "name": "floatBufferViews",
      "target": 34962
    }
  ],
  "buffers": [
    {
      "byteLength": 279720,
      "uri": "scene.bin"
    }
  ],
  "materials": [
    {
      "doubleSided": true,
      "name": "color_14860437",
      "pbrMetallicRoughness": {
        "baseColorFactor": [
          0.886275,
          0.752941,
          0.584314,
          1.0
        ],
        "metallicFactor": 0.0
      }
    },
    {
      "doubleSided": true,
      "name": "color_16448250",
      "pbrMetallicRoughness": {
        "baseColorFactor": [
          0.980392,
          0.980392,
          0.980392,
          1.0
        ],
        "metallicFactor": 0.0
      }
    },
    {
      "doubleSided": true,
      "name": "color_40919",
      "pbrMetallicRoughness": {
        "baseColorFactor": [
          0.0,
          0.623529,
          0.843137,
          1.0
        ],
        "metallicFactor": 0.0
      }
    }
  ],
  "meshes": [
    {
      "name": "Object_0",
      "primitives": [
        {
          "attributes": {
            "NORMAL": 1,
            "POSITION": 0
          },
          "indices": 2,
          "material": 0,
          "mode": 4
        }
      ]
    },
    {
      "name": "Object_1",
      "primitives": [
        {
          "attributes": {
            "NORMAL": 4,
            "POSITION": 3
          },
          "indices": 5,
          "material": 1,
          "mode": 4
        }
      ]
    },
    {
      "name": "Object_2",
      "primitives": [
        {
          "attributes": {
            "NORMAL": 7,
            "POSITION": 6
          },
          "indices": 8,
          "material": 2,
          "mode": 4
        }
      ]
    }
  ],
  "nodes": [
    {
      "children": [
        1
      ],
      "matrix": [
        1.0,
        0.0,
        0.0,
        0.0,
        0.0,
        -1.0,
        0.0,
        0.0,
        0.0,
        0.0,
        -1.0,
        0.0,
        0.0,
        -109.9999465942383,
        68.99989318847653,
        1.0
      ],
      "name": "Sketchfab_model"
    },
    {
      "children": [
        2,
        3,
        4
      ],
      "name": "tinker.obj.cleaner.materialmerger.gles"
    },
    {
      "mesh": 0,
      "name": "Object_2"
    },
    {
      "mesh": 1,
      "name": "Object_3"
    },
    {
      "mesh": 2,
      "name": "Object_4"
    }
  ],
  "scene": 0,
  "scenes": [
    {
      "name": "Sketchfab_Scene",
      "nodes": [
        0
      ]
    }
  ]
}